<svg xmlns="http://www.w3.org/2000/svg" xmlns:xlink="http://www.w3.org/1999/xlink" width="944" zoomAndPan="magnify" viewBox="0 0 708 707.999996" height="944" preserveAspectRatio="xMidYMid meet" version="1.0"><defs><clipPath id="a181d0c18c"><path d="M 182.582031 22.574219 L 525.332031 22.574219 L 525.332031 417.824219 L 182.582031 417.824219 Z M 182.582031 22.574219 " clip-rule="nonzero"/></clipPath></defs><path fill="#f9a215" d="M 360.1875 194.042969 L 390.269531 196.90625 L 389.335938 265.671875 L 359.351562 256.035156 L 359.714844 224.460938 L 330.613281 237.945312 L 307.671875 220.757812 L 360.1875 194.046875 Z M 360.1875 194.042969 " fill-opacity="1" fill-rule="nonzero"/><path fill="#f9a215" d="M 465 246.535156 L 495.078125 249.394531 L 494.148438 318.160156 L 464.164062 308.523438 L 464.523438 276.949219 L 435.429688 290.433594 L 412.484375 273.25 Z M 465 246.535156 " fill-opacity="1" fill-rule="nonzero"/><path fill="#f9a215" d="M 569.074219 300.957031 L 599.152344 303.816406 L 598.222656 372.585938 L 568.238281 362.949219 L 568.601562 331.375 L 539.503906 344.859375 L 516.5625 327.671875 L 569.074219 300.960938 Z M 569.074219 300.957031 " fill-opacity="1" fill-rule="nonzero"/><path fill="#f9a215" d="M 666.9375 350.125 L 697.015625 352.988281 L 696.085938 421.753906 L 666.097656 412.117188 L 666.460938 380.542969 L 637.363281 394.027344 L 614.421875 376.84375 L 666.9375 350.128906 Z M 666.9375 350.125 " fill-opacity="1" fill-rule="nonzero"/><path fill="#000000" d="M 667.039062 340.871094 L 665.402344 341.6875 L 612.957031 367.910156 L 609.679688 370.371094 L 609.679688 411.339844 L 619.511719 406.421875 L 662.125 385.117188 L 662.125 459.6875 L 701.457031 459.6875 L 701.457031 344.148438 L 695.71875 343.328125 L 669.496094 341.691406 Z M 670.320312 354.800781 L 688.347656 356.4375 L 688.347656 446.578125 L 675.234375 446.578125 L 675.234375 363.816406 L 665.402344 367.910156 L 622.789062 389.214844 L 622.789062 378.5625 Z M 670.320312 354.800781 " fill-opacity="1" fill-rule="evenodd"/><path fill="#000000" d="M 568.707031 294.980469 L 567.070312 295.800781 L 514.625 322.023438 L 511.347656 324.480469 L 511.347656 365.449219 L 521.179688 360.535156 L 563.789062 339.230469 L 563.789062 413.800781 L 603.125 413.800781 L 603.125 298.257812 L 597.386719 297.441406 L 571.164062 295.800781 L 568.703125 294.984375 Z M 571.984375 308.910156 L 590.011719 310.550781 L 590.011719 400.6875 L 576.902344 400.6875 L 576.902344 317.925781 L 567.070312 322.023438 L 524.457031 343.328125 L 524.457031 332.675781 Z M 571.984375 308.910156 " fill-opacity="1" fill-rule="evenodd"/><path fill="#000000" d="M 463.820312 242.535156 L 409.734375 269.578125 L 406.457031 272.035156 L 406.457031 313.007812 L 416.289062 308.089844 L 458.902344 286.785156 L 458.902344 361.355469 L 498.234375 361.355469 L 498.234375 245.816406 L 492.496094 244.996094 L 466.277344 243.359375 L 463.816406 242.539062 Z M 467.097656 256.464844 L 485.125 258.105469 L 485.125 348.242188 L 472.011719 348.242188 L 472.011719 265.480469 L 462.179688 269.578125 L 419.570312 290.882812 L 419.570312 280.230469 L 467.097656 256.46875 Z M 467.097656 256.464844 " fill-opacity="1" fill-rule="evenodd"/><path fill="#000000" d="M 358.929688 190.09375 L 357.289062 190.910156 L 304.847656 217.132812 L 301.570312 219.59375 L 301.570312 260.5625 L 311.402344 255.644531 L 354.011719 234.339844 L 354.011719 308.910156 L 393.347656 308.910156 L 393.347656 193.371094 L 387.609375 192.550781 L 361.386719 190.914062 L 358.925781 190.09375 Z M 362.207031 204.023438 L 380.234375 205.660156 L 380.234375 295.800781 L 367.125 295.800781 L 367.125 213.035156 L 357.289062 217.132812 L 314.679688 238.4375 L 314.679688 227.785156 Z M 362.207031 204.023438 " fill-opacity="1" fill-rule="evenodd"/><path fill="#f9a215" d="M 13.109375 354.464844 L 13.109375 406.910156 L 432.667969 616.6875 L 432.667969 564.242188 Z M 13.109375 354.464844 " fill-opacity="1" fill-rule="evenodd"/><path fill="#f9a215" d="M 432.667969 564.246094 L 694.890625 433.136719 L 694.890625 485.582031 L 432.667969 616.691406 Z M 432.667969 564.246094 " fill-opacity="1" fill-rule="evenodd"/><path fill="#ffdf66" d="M 13.109375 354.464844 L 275.332031 223.351562 L 694.890625 433.128906 L 432.667969 564.242188 Z M 13.109375 354.464844 " fill-opacity="1" fill-rule="evenodd"/><path fill="#000000" d="M 288.445312 208.9375 L 282.707031 211.398438 L 20.484375 342.507812 L 13.109375 346.605469 L 13.109375 414.621094 L 20.484375 418.714844 L 426.929688 628.492188 L 432.667969 631.773438 L 438.402344 628.492188 L 700.625 497.382812 L 708 493.285156 L 708 425.273438 L 700.625 421.175781 L 294.183594 211.398438 Z M 288.445312 238.4375 L 681.777344 440.84375 L 681.777344 477.714844 L 432.667969 601.453125 L 39.332031 399.050781 L 39.332031 362.992188 Z M 288.445312 238.4375 " fill-opacity="1" fill-rule="evenodd"/><path fill="#f9a215" d="M 5.96875 416.089844 L 59.910156 387.929688 L 86.144531 388.382812 L 85.574219 414.726562 L 34.128906 441.53125 L 34.585938 518.75 L 5.96875 518.75 Z M 5.96875 416.089844 " fill-opacity="1" fill-rule="nonzero"/><path fill="#f9a215" d="M 110.066406 468.507812 L 164.007812 440.347656 L 190.242188 440.800781 L 189.671875 467.144531 L 138.230469 493.949219 L 138.683594 571.167969 L 110.066406 571.167969 Z M 110.066406 468.507812 " fill-opacity="1" fill-rule="nonzero"/><path fill="#f9a215" d="M 216.046875 520.089844 L 269.988281 491.925781 L 296.222656 492.378906 L 295.65625 518.726562 L 244.210938 545.527344 L 244.667969 622.75 L 216.050781 622.75 L 216.050781 520.089844 Z M 216.046875 520.089844 " fill-opacity="1" fill-rule="nonzero"/><path fill="#f9a215" d="M 321.066406 572.585938 L 375.007812 544.421875 L 401.238281 544.875 L 400.671875 571.222656 L 349.230469 598.019531 L 349.683594 675.242188 L 321.066406 675.242188 L 321.066406 572.582031 Z M 321.066406 572.585938 " fill-opacity="1" fill-rule="nonzero"/><path fill="#000000" d="M 162.25 433.464844 L 160.609375 434.285156 L 108.167969 462.144531 L 104.890625 463.785156 L 104.890625 577.6875 L 144.222656 577.6875 L 144.222656 496.558594 L 193.390625 471.976562 L 196.667969 470.335938 L 196.667969 433.464844 Z M 165.527344 446.578125 L 183.554688 446.578125 L 183.554688 461.328125 L 134.390625 485.910156 L 131.109375 488.371094 L 131.109375 564.578125 L 118 564.578125 L 118 471.980469 L 165.527344 446.574219 Z M 165.527344 446.578125 " fill-opacity="1" fill-rule="evenodd"/><path fill="#000000" d="M 57.359375 381.023438 L 55.722656 381.839844 L 3.277344 409.699219 L 0 411.339844 L 0 525.242188 L 39.332031 525.242188 L 39.332031 444.113281 L 88.5 419.53125 L 91.777344 417.894531 L 91.777344 381.019531 L 57.359375 381.019531 Z M 60.640625 394.132812 L 78.667969 394.132812 L 78.667969 408.882812 L 29.5 433.464844 L 26.222656 435.925781 L 26.222656 512.132812 L 13.109375 512.132812 L 13.109375 419.535156 L 60.640625 394.128906 Z M 60.640625 394.132812 " fill-opacity="1" fill-rule="evenodd"/><path fill="#000000" d="M 267.152344 485.921875 L 265.511719 486.738281 L 213.070312 514.601562 L 209.789062 516.238281 L 209.789062 630.140625 L 249.125 630.140625 L 249.125 549.015625 L 298.289062 524.429688 L 301.570312 522.792969 L 301.570312 485.917969 L 267.152344 485.917969 Z M 270.429688 499.03125 L 288.457031 499.03125 L 288.457031 513.78125 L 239.289062 538.367188 L 236.011719 540.824219 L 236.011719 617.03125 L 222.902344 617.03125 L 222.902344 524.433594 Z M 270.429688 499.03125 " fill-opacity="1" fill-rule="evenodd"/><path fill="#000000" d="M 372.039062 538.367188 L 370.402344 539.183594 L 317.957031 567.042969 L 314.679688 568.683594 L 314.679688 682.585938 L 354.011719 682.585938 L 354.011719 601.457031 L 403.179688 576.875 L 406.457031 575.238281 L 406.457031 538.363281 L 372.039062 538.363281 Z M 375.320312 551.476562 L 393.347656 551.476562 L 393.347656 566.226562 L 344.179688 590.808594 L 340.902344 593.269531 L 340.902344 669.476562 L 327.789062 669.476562 L 327.789062 576.878906 L 375.320312 551.472656 Z M 375.320312 551.476562 " fill-opacity="1" fill-rule="evenodd"/><path fill="#f9a215" d="M 518.820312 378.589844 C 518.820312 379.132812 518.753906 379.671875 518.621094 380.210938 C 518.488281 380.75 518.289062 381.285156 518.027344 381.824219 C 517.761719 382.359375 517.433594 382.894531 517.035156 383.429688 C 516.640625 383.960938 516.179688 384.492188 515.652344 385.023438 C 515.125 385.550781 514.535156 386.078125 513.878906 386.601562 C 513.226562 387.125 512.503906 387.644531 511.722656 388.160156 C 510.941406 388.675781 510.09375 389.1875 509.183594 389.695312 C 508.277344 390.207031 507.304688 390.707031 506.273438 391.207031 C 505.242188 391.707031 504.148438 392.199219 502.996094 392.6875 C 501.84375 393.171875 500.628906 393.65625 499.359375 394.132812 C 498.085938 394.605469 496.757812 395.078125 495.371094 395.539062 C 493.984375 396 492.539062 396.457031 491.042969 396.90625 C 489.542969 397.355469 487.992188 397.796875 486.382812 398.230469 C 484.777344 398.660156 483.117188 399.085938 481.40625 399.503906 C 479.695312 399.921875 477.933594 400.328125 476.121094 400.730469 C 474.3125 401.128906 472.453125 401.519531 470.542969 401.902344 C 468.636719 402.28125 466.683594 402.65625 464.683594 403.015625 C 462.6875 403.378906 460.644531 403.730469 458.558594 404.074219 C 456.472656 404.414062 454.347656 404.746094 452.183594 405.070312 C 450.015625 405.390625 447.8125 405.699219 445.566406 406 C 443.324219 406.300781 441.046875 406.589844 438.734375 406.867188 C 436.417969 407.144531 434.074219 407.410156 431.695312 407.664062 C 429.316406 407.917969 426.90625 408.160156 424.46875 408.390625 C 422.03125 408.621094 419.5625 408.839844 417.070312 409.046875 C 414.578125 409.253906 412.0625 409.449219 409.523438 409.628906 C 406.984375 409.8125 404.425781 409.980469 401.84375 410.136719 C 399.261719 410.292969 396.664062 410.4375 394.046875 410.570312 C 391.429688 410.699219 388.796875 410.816406 386.152344 410.921875 C 383.507812 411.027344 380.851562 411.121094 378.179688 411.199219 C 375.511719 411.277344 372.835938 411.34375 370.152344 411.398438 C 367.46875 411.449219 364.777344 411.488281 362.085938 411.515625 C 359.390625 411.542969 356.695312 411.554688 353.996094 411.554688 C 351.300781 411.554688 348.605469 411.542969 345.910156 411.515625 C 343.214844 411.488281 340.527344 411.449219 337.839844 411.398438 C 335.15625 411.34375 332.480469 411.277344 329.8125 411.199219 C 327.144531 411.121094 324.488281 411.027344 321.839844 410.921875 C 319.195312 410.816406 316.566406 410.699219 313.949219 410.570312 C 311.332031 410.4375 308.734375 410.292969 306.152344 410.136719 C 303.570312 409.980469 301.007812 409.8125 298.46875 409.628906 C 295.929688 409.449219 293.414062 409.253906 290.921875 409.046875 C 288.429688 408.839844 285.964844 408.621094 283.527344 408.390625 C 281.085938 408.160156 278.679688 407.917969 276.300781 407.664062 C 273.921875 407.410156 271.574219 407.144531 269.261719 406.867188 C 266.949219 406.589844 264.667969 406.300781 262.425781 406 C 260.183594 405.699219 257.980469 405.390625 255.8125 405.070312 C 253.644531 404.746094 251.519531 404.414062 249.433594 404.074219 C 247.347656 403.730469 245.308594 403.378906 243.308594 403.015625 C 241.308594 402.65625 239.355469 402.28125 237.449219 401.902344 C 235.542969 401.519531 233.683594 401.128906 231.871094 400.730469 C 230.058594 400.328125 228.296875 399.921875 226.585938 399.503906 C 224.875 399.085938 223.214844 398.660156 221.609375 398.230469 C 220.003906 397.796875 218.449219 397.355469 216.953125 396.90625 C 215.453125 396.457031 214.011719 396 212.625 395.539062 C 211.238281 395.078125 209.90625 394.605469 208.636719 394.132812 C 207.363281 393.65625 206.152344 393.171875 205 392.6875 C 203.84375 392.199219 202.753906 391.707031 201.71875 391.207031 C 200.6875 390.707031 199.71875 390.207031 198.808594 389.695312 C 197.898438 389.1875 197.054688 388.675781 196.269531 388.160156 C 195.488281 387.644531 194.769531 387.125 194.113281 386.601562 C 193.457031 386.078125 192.867188 385.550781 192.339844 385.023438 C 191.816406 384.492188 191.355469 383.960938 190.957031 383.429688 C 190.5625 382.894531 190.230469 382.359375 189.96875 381.824219 C 189.703125 381.285156 189.503906 380.75 189.371094 380.210938 C 189.238281 379.671875 189.175781 379.132812 189.175781 378.589844 C 189.175781 378.050781 189.238281 377.511719 189.371094 376.972656 C 189.503906 376.433594 189.703125 375.898438 189.96875 375.359375 C 190.230469 374.824219 190.5625 374.289062 190.957031 373.753906 C 191.355469 373.222656 191.816406 372.691406 192.339844 372.160156 C 192.867188 371.632812 193.457031 371.105469 194.113281 370.582031 C 194.769531 370.058594 195.488281 369.539062 196.269531 369.023438 C 197.054688 368.507812 197.898438 367.996094 198.808594 367.484375 C 199.71875 366.976562 200.6875 366.476562 201.71875 365.976562 C 202.753906 365.476562 203.84375 364.984375 205 364.496094 C 206.152344 364.011719 207.363281 363.527344 208.636719 363.050781 C 209.90625 362.578125 211.238281 362.105469 212.625 361.644531 C 214.011719 361.183594 215.453125 360.726562 216.953125 360.277344 C 218.449219 359.828125 220.003906 359.386719 221.609375 358.953125 C 223.214844 358.519531 224.875 358.097656 226.585938 357.679688 C 228.296875 357.261719 230.058594 356.855469 231.871094 356.453125 C 233.683594 356.054688 235.542969 355.664062 237.449219 355.28125 C 239.355469 354.902344 241.308594 354.527344 243.308594 354.167969 C 245.308594 353.804688 247.347656 353.453125 249.433594 353.109375 C 251.519531 352.765625 253.644531 352.4375 255.8125 352.113281 C 257.980469 351.792969 260.183594 351.480469 262.425781 351.183594 C 264.667969 350.882812 266.949219 350.59375 269.261719 350.316406 C 271.574219 350.039062 273.921875 349.773438 276.300781 349.519531 C 278.679688 349.265625 281.085938 349.023438 283.527344 348.792969 C 285.964844 348.5625 288.429688 348.34375 290.921875 348.136719 C 293.414062 347.929688 295.929688 347.734375 298.46875 347.554688 C 301.007812 347.371094 303.570312 347.203125 306.152344 347.046875 C 308.734375 346.890625 311.332031 346.746094 313.949219 346.613281 C 316.566406 346.484375 319.195312 346.367188 321.839844 346.261719 C 324.488281 346.15625 327.144531 346.0625 329.8125 345.984375 C 332.480469 345.90625 335.15625 345.839844 337.839844 345.785156 C 340.527344 345.734375 343.214844 345.691406 345.910156 345.667969 C 348.605469 345.640625 351.300781 345.628906 353.996094 345.628906 C 356.695312 345.628906 359.390625 345.640625 362.085938 345.667969 C 364.777344 345.691406 367.46875 345.734375 370.152344 345.785156 C 372.835938 345.839844 375.511719 345.90625 378.179688 345.984375 C 380.851562 346.0625 383.507812 346.15625 386.152344 346.261719 C 388.796875 346.367188 391.429688 346.484375 394.046875 346.613281 C 396.664062 346.746094 399.261719 346.890625 401.84375 347.046875 C 404.425781 347.203125 406.984375 347.371094 409.523438 347.554688 C 412.0625 347.734375 414.578125 347.929688 417.070312 348.136719 C 419.5625 348.34375 422.03125 348.5625 424.46875 348.792969 C 426.90625 349.023438 429.316406 349.265625 431.695312 349.519531 C 434.074219 349.773438 436.417969 350.039062 438.734375 350.316406 C 441.046875 350.59375 443.324219 350.882812 445.566406 351.183594 C 447.8125 351.480469 450.015625 351.792969 452.183594 352.113281 C 454.347656 352.4375 456.472656 352.765625 458.558594 353.109375 C 460.644531 353.453125 462.6875 353.804688 464.683594 354.167969 C 466.683594 354.527344 468.636719 354.902344 470.542969 355.28125 C 472.453125 355.664062 474.3125 356.054688 476.121094 356.453125 C 477.933594 356.855469 479.695312 357.261719 481.40625 357.679688 C 483.117188 358.097656 484.777344 358.519531 486.382812 358.953125 C 487.992188 359.386719 489.542969 359.828125 491.042969 360.277344 C 492.539062 360.726562 493.984375 361.183594 495.371094 361.644531 C 496.757812 362.105469 498.085938 362.578125 499.359375 363.050781 C 500.628906 363.527344 501.84375 364.011719 502.996094 364.496094 C 504.148438 364.984375 505.242188 365.476562 506.273438 365.976562 C 507.304688 366.476562 508.277344 366.976562 509.183594 367.484375 C 510.09375 367.996094 510.941406 368.507812 511.722656 369.023438 C 512.503906 369.539062 513.226562 370.058594 513.878906 370.582031 C 514.535156 371.105469 515.125 371.632812 515.652344 372.160156 C 516.179688 372.691406 516.640625 373.222656 517.035156 373.753906 C 517.433594 374.289062 517.761719 374.824219 518.027344 375.359375 C 518.289062 375.898438 518.488281 376.433594 518.621094 376.972656 C 518.753906 377.511719 518.820312 378.050781 518.820312 378.589844 Z M 518.820312 378.589844 " fill-opacity="1" fill-rule="nonzero"/><path fill="#f9a215" d="M 492.449219 167.617188 C 492.449219 244.082031 353.996094 391.777344 353.996094 391.777344 C 353.996094 391.777344 215.546875 244.082031 215.546875 167.617188 C 215.546875 91.152344 277.53125 29.167969 353.996094 29.167969 C 430.460938 29.167969 492.449219 91.152344 492.449219 167.617188 Z M 492.449219 167.617188 " fill-opacity="1" fill-rule="nonzero"/><path fill="#ffdf66" d="M 466.078125 167.617188 C 466.078125 169.453125 466.03125 171.285156 465.941406 173.117188 C 465.851562 174.949219 465.714844 176.777344 465.535156 178.605469 C 465.355469 180.429688 465.132812 182.25 464.863281 184.0625 C 464.59375 185.878906 464.28125 187.683594 463.921875 189.484375 C 463.566406 191.28125 463.164062 193.070312 462.71875 194.851562 C 462.273438 196.628906 461.78125 198.398438 461.25 200.152344 C 460.71875 201.910156 460.144531 203.648438 459.523438 205.375 C 458.90625 207.105469 458.246094 208.816406 457.546875 210.507812 C 456.84375 212.203125 456.101562 213.878906 455.316406 215.539062 C 454.53125 217.195312 453.707031 218.835938 452.84375 220.453125 C 451.976562 222.070312 451.074219 223.664062 450.132812 225.238281 C 449.1875 226.8125 448.207031 228.359375 447.1875 229.886719 C 446.167969 231.410156 445.113281 232.910156 444.019531 234.382812 C 442.925781 235.855469 441.800781 237.304688 440.636719 238.722656 C 439.472656 240.140625 438.273438 241.527344 437.042969 242.886719 C 435.8125 244.246094 434.546875 245.574219 433.25 246.871094 C 431.953125 248.167969 430.625 249.433594 429.265625 250.664062 C 427.90625 251.894531 426.515625 253.09375 425.097656 254.257812 C 423.683594 255.421875 422.234375 256.546875 420.761719 257.640625 C 419.289062 258.734375 417.789062 259.789062 416.265625 260.808594 C 414.738281 261.828125 413.191406 262.808594 411.617188 263.753906 C 410.042969 264.695312 408.449219 265.597656 406.832031 266.464844 C 405.214844 267.328125 403.574219 268.152344 401.917969 268.9375 C 400.257812 269.722656 398.582031 270.464844 396.886719 271.167969 C 395.195312 271.867188 393.484375 272.527344 391.753906 273.144531 C 390.027344 273.765625 388.289062 274.339844 386.53125 274.871094 C 384.777344 275.402344 383.007812 275.894531 381.230469 276.339844 C 379.449219 276.785156 377.660156 277.1875 375.863281 277.542969 C 374.0625 277.902344 372.257812 278.214844 370.441406 278.484375 C 368.628906 278.753906 366.808594 278.976562 364.984375 279.160156 C 363.15625 279.339844 361.328125 279.472656 359.496094 279.5625 C 357.664062 279.652344 355.832031 279.699219 353.996094 279.699219 C 352.164062 279.699219 350.328125 279.652344 348.496094 279.5625 C 346.664062 279.472656 344.835938 279.339844 343.011719 279.160156 C 341.1875 278.976562 339.367188 278.753906 337.550781 278.484375 C 335.738281 278.214844 333.929688 277.902344 332.132812 277.542969 C 330.332031 277.1875 328.542969 276.785156 326.765625 276.339844 C 324.984375 275.894531 323.21875 275.402344 321.460938 274.871094 C 319.707031 274.339844 317.964844 273.765625 316.238281 273.144531 C 314.511719 272.527344 312.800781 271.867188 311.105469 271.167969 C 309.410156 270.464844 307.734375 269.722656 306.078125 268.9375 C 304.417969 268.152344 302.78125 267.328125 301.164062 266.464844 C 299.546875 265.597656 297.949219 264.695312 296.375 263.753906 C 294.804688 262.808594 293.253906 261.828125 291.730469 260.808594 C 290.203125 259.789062 288.703125 258.734375 287.230469 257.640625 C 285.757812 256.546875 284.3125 255.421875 282.894531 254.257812 C 281.476562 253.09375 280.089844 251.894531 278.730469 250.664062 C 277.371094 249.433594 276.042969 248.167969 274.746094 246.871094 C 273.449219 245.574219 272.183594 244.246094 270.953125 242.886719 C 269.71875 241.527344 268.523438 240.140625 267.359375 238.722656 C 266.195312 237.304688 265.066406 235.855469 263.972656 234.382812 C 262.882812 232.910156 261.824219 231.410156 260.804688 229.886719 C 259.785156 228.359375 258.804688 226.8125 257.863281 225.238281 C 256.921875 223.664062 256.015625 222.070312 255.152344 220.453125 C 254.285156 218.835938 253.460938 217.195312 252.679688 215.539062 C 251.894531 213.878906 251.152344 212.203125 250.449219 210.507812 C 249.746094 208.816406 249.085938 207.105469 248.46875 205.375 C 247.851562 203.648438 247.277344 201.910156 246.742188 200.152344 C 246.210938 198.398438 245.722656 196.628906 245.277344 194.851562 C 244.832031 193.070312 244.429688 191.28125 244.070312 189.484375 C 243.714844 187.683594 243.398438 185.878906 243.128906 184.0625 C 242.859375 182.25 242.636719 180.429688 242.457031 178.605469 C 242.277344 176.777344 242.140625 174.949219 242.050781 173.117188 C 241.960938 171.285156 241.917969 169.453125 241.917969 167.617188 C 241.917969 165.785156 241.960938 163.949219 242.050781 162.117188 C 242.140625 160.285156 242.277344 158.457031 242.457031 156.632812 C 242.636719 154.808594 242.859375 152.988281 243.128906 151.171875 C 243.398438 149.359375 243.714844 147.550781 244.070312 145.753906 C 244.429688 143.953125 244.832031 142.164062 245.277344 140.386719 C 245.722656 138.605469 246.210938 136.839844 246.742188 135.082031 C 247.277344 133.328125 247.851562 131.585938 248.46875 129.859375 C 249.085938 128.132812 249.746094 126.421875 250.449219 124.726562 C 251.152344 123.03125 251.894531 121.355469 252.679688 119.699219 C 253.460938 118.039062 254.285156 116.402344 255.152344 114.785156 C 256.015625 113.167969 256.921875 111.570312 257.863281 109.996094 C 258.804688 108.425781 259.785156 106.875 260.804688 105.351562 C 261.824219 103.824219 262.882812 102.324219 263.972656 100.851562 C 265.066406 99.378906 266.195312 97.933594 267.359375 96.515625 C 268.523438 95.097656 269.71875 93.710938 270.953125 92.351562 C 272.183594 90.992188 273.449219 89.664062 274.746094 88.367188 C 276.042969 87.070312 277.371094 85.804688 278.730469 84.574219 C 280.089844 83.339844 281.476562 82.144531 282.894531 80.980469 C 284.3125 79.816406 285.757812 78.6875 287.230469 77.59375 C 288.703125 76.503906 290.203125 75.445312 291.730469 74.425781 C 293.253906 73.410156 294.804688 72.425781 296.375 71.484375 C 297.949219 70.542969 299.546875 69.636719 301.164062 68.773438 C 302.78125 67.90625 304.417969 67.082031 306.078125 66.300781 C 307.734375 65.515625 309.410156 64.773438 311.105469 64.070312 C 312.800781 63.367188 314.511719 62.707031 316.238281 62.089844 C 317.964844 61.472656 319.707031 60.898438 321.460938 60.363281 C 323.21875 59.832031 324.984375 59.34375 326.765625 58.898438 C 328.542969 58.453125 330.332031 58.050781 332.132812 57.691406 C 333.929688 57.335938 335.738281 57.019531 337.550781 56.75 C 339.367188 56.484375 341.1875 56.257812 343.011719 56.078125 C 344.835938 55.898438 346.664062 55.761719 348.496094 55.671875 C 350.328125 55.582031 352.164062 55.539062 353.996094 55.539062 C 355.832031 55.539062 357.664062 55.582031 359.496094 55.671875 C 361.328125 55.761719 363.15625 55.898438 364.984375 56.078125 C 366.808594 56.257812 368.628906 56.484375 370.441406 56.75 C 372.257812 57.019531 374.0625 57.335938 375.863281 57.691406 C 377.660156 58.050781 379.449219 58.453125 381.230469 58.898438 C 383.007812 59.34375 384.777344 59.832031 386.53125 60.363281 C 388.289062 60.898438 390.027344 61.472656 391.753906 62.089844 C 393.484375 62.707031 395.195312 63.367188 396.886719 64.070312 C 398.582031 64.773438 400.257812 65.515625 401.917969 66.300781 C 403.574219 67.082031 405.214844 67.90625 406.832031 68.773438 C 408.449219 69.636719 410.042969 70.542969 411.617188 71.484375 C 413.191406 72.425781 414.738281 73.410156 416.265625 74.425781 C 417.789062 75.445312 419.289062 76.503906 420.761719 77.59375 C 422.234375 78.6875 423.683594 79.816406 425.097656 80.980469 C 426.515625 82.144531 427.90625 83.339844 429.265625 84.574219 C 430.625 85.804688 431.953125 87.070312 433.25 88.367188 C 434.546875 89.664062 435.8125 90.992188 437.042969 92.351562 C 438.273438 93.710938 439.472656 95.097656 440.636719 96.515625 C 441.800781 97.933594 442.925781 99.378906 444.019531 100.851562 C 445.113281 102.324219 446.167969 103.824219 447.1875 105.351562 C 448.207031 106.875 449.1875 108.425781 450.132812 109.996094 C 451.074219 111.570312 451.976562 113.167969 452.84375 114.785156 C 453.707031 116.402344 454.53125 118.039062 455.316406 119.699219 C 456.101562 121.355469 456.84375 123.03125 457.546875 124.726562 C 458.246094 126.421875 458.90625 128.132812 459.523438 129.859375 C 460.144531 131.585938 460.71875 133.328125 461.25 135.082031 C 461.78125 136.839844 462.273438 138.605469 462.71875 140.386719 C 463.164062 142.164062 463.566406 143.953125 463.921875 145.753906 C 464.28125 147.550781 464.59375 149.359375 464.863281 151.171875 C 465.132812 152.988281 465.355469 154.808594 465.535156 156.632812 C 465.714844 158.457031 465.851562 160.285156 465.941406 162.117188 C 466.03125 163.949219 466.078125 165.785156 466.078125 167.617188 Z M 466.078125 167.617188 " fill-opacity="1" fill-rule="nonzero"/><path fill="#f7b23b" d="M 373.777344 220.363281 C 373.777344 221.007812 373.742188 221.65625 373.679688 222.300781 C 373.617188 222.945312 373.523438 223.585938 373.394531 224.21875 C 373.269531 224.855469 373.113281 225.484375 372.925781 226.101562 C 372.734375 226.722656 372.519531 227.332031 372.269531 227.929688 C 372.023438 228.527344 371.746094 229.113281 371.441406 229.683594 C 371.136719 230.257812 370.800781 230.8125 370.441406 231.351562 C 370.082031 231.890625 369.695312 232.410156 369.285156 232.910156 C 368.875 233.410156 368.441406 233.890625 367.984375 234.347656 C 367.523438 234.804688 367.046875 235.238281 366.542969 235.652344 C 366.042969 236.0625 365.523438 236.445312 364.984375 236.808594 C 364.445312 237.167969 363.890625 237.5 363.320312 237.804688 C 362.75 238.109375 362.164062 238.386719 361.566406 238.636719 C 360.96875 238.882812 360.359375 239.101562 359.738281 239.289062 C 359.117188 239.476562 358.492188 239.632812 357.855469 239.761719 C 357.21875 239.886719 356.582031 239.980469 355.9375 240.046875 C 355.289062 240.109375 354.644531 240.140625 353.996094 240.140625 C 353.347656 240.140625 352.703125 240.109375 352.058594 240.046875 C 351.414062 239.980469 350.773438 239.886719 350.136719 239.761719 C 349.503906 239.632812 348.875 239.476562 348.253906 239.289062 C 347.636719 239.101562 347.027344 238.882812 346.429688 238.636719 C 345.828125 238.386719 345.246094 238.109375 344.671875 237.804688 C 344.101562 237.5 343.546875 237.167969 343.007812 236.808594 C 342.46875 236.445312 341.949219 236.0625 341.449219 235.652344 C 340.949219 235.238281 340.46875 234.804688 340.011719 234.347656 C 339.554688 233.890625 339.117188 233.410156 338.707031 232.910156 C 338.296875 232.410156 337.910156 231.890625 337.550781 231.351562 C 337.191406 230.8125 336.859375 230.257812 336.554688 229.683594 C 336.25 229.113281 335.972656 228.527344 335.722656 227.929688 C 335.476562 227.332031 335.257812 226.722656 335.070312 226.101562 C 334.882812 225.484375 334.726562 224.855469 334.597656 224.21875 C 334.472656 223.585938 334.375 222.945312 334.3125 222.300781 C 334.25 221.65625 334.21875 221.007812 334.21875 220.363281 C 334.21875 219.714844 334.25 219.066406 334.3125 218.421875 C 334.375 217.777344 334.472656 217.136719 334.597656 216.503906 C 334.726562 215.867188 334.882812 215.238281 335.070312 214.621094 C 335.257812 214 335.476562 213.390625 335.722656 212.792969 C 335.972656 212.195312 336.25 211.609375 336.554688 211.039062 C 336.859375 210.464844 337.191406 209.910156 337.550781 209.375 C 337.910156 208.835938 338.296875 208.316406 338.707031 207.8125 C 339.117188 207.3125 339.554688 206.832031 340.011719 206.375 C 340.46875 205.917969 340.949219 205.484375 341.449219 205.074219 C 341.949219 204.660156 342.46875 204.277344 343.007812 203.917969 C 343.546875 203.554688 344.101562 203.222656 344.671875 202.917969 C 345.246094 202.613281 345.828125 202.335938 346.429688 202.089844 C 347.027344 201.839844 347.636719 201.621094 348.253906 201.433594 C 348.875 201.246094 349.503906 201.089844 350.136719 200.960938 C 350.773438 200.835938 351.414062 200.742188 352.058594 200.679688 C 352.703125 200.613281 353.347656 200.582031 353.996094 200.582031 C 354.644531 200.582031 355.289062 200.613281 355.9375 200.679688 C 356.582031 200.742188 357.21875 200.835938 357.855469 200.960938 C 358.492188 201.089844 359.117188 201.246094 359.738281 201.433594 C 360.359375 201.621094 360.96875 201.839844 361.566406 202.089844 C 362.164062 202.335938 362.75 202.613281 363.320312 202.917969 C 363.890625 203.222656 364.445312 203.554688 364.984375 203.917969 C 365.523438 204.277344 366.042969 204.660156 366.542969 205.074219 C 367.046875 205.484375 367.523438 205.917969 367.984375 206.375 C 368.441406 206.832031 368.875 207.3125 369.285156 207.8125 C 369.695312 208.316406 370.082031 208.835938 370.441406 209.375 C 370.800781 209.910156 371.136719 210.464844 371.441406 211.039062 C 371.746094 211.609375 372.023438 212.195312 372.269531 212.792969 C 372.519531 213.390625 372.734375 214 372.925781 214.621094 C 373.113281 215.238281 373.269531 215.867188 373.394531 216.503906 C 373.523438 217.136719 373.617188 217.777344 373.679688 218.421875 C 373.742188 219.066406 373.777344 219.714844 373.777344 220.363281 Z M 373.777344 220.363281 " fill-opacity="1" fill-rule="nonzero"/><path fill="#f7b23b" d="M 353.996094 152.613281 C 335.058594 152.613281 317.402344 161.332031 304.285156 177.167969 L 324.59375 193.988281 C 332.609375 184.3125 343.050781 178.984375 353.996094 178.984375 C 364.941406 178.984375 375.382812 184.3125 383.402344 193.988281 L 403.710938 177.167969 C 390.59375 161.332031 372.9375 152.613281 353.996094 152.613281 Z M 353.996094 152.613281 " fill-opacity="1" fill-rule="nonzero"/><path fill="#f7b23b" d="M 353.996094 101.6875 C 322.847656 101.6875 293.628906 114.925781 271.730469 138.957031 L 291.222656 156.722656 C 308.0625 138.238281 330.355469 128.0625 353.996094 128.0625 C 377.636719 128.0625 399.929688 138.238281 416.773438 156.722656 L 436.265625 138.957031 C 414.363281 114.925781 385.148438 101.6875 353.996094 101.6875 Z M 353.996094 101.6875 " fill-opacity="1" fill-rule="nonzero"/><g clip-path="url(#a181d0c18c)"><path fill="#000000" d="M 471.835938 348.816406 C 453.148438 345.078125 430.820312 342.347656 406.492188 340.734375 C 413.617188 331.863281 421.074219 322.292969 428.511719 312.308594 C 475.3125 249.460938 499.042969 200.777344 499.042969 167.617188 C 499.042969 87.640625 433.976562 22.574219 353.996094 22.574219 C 274.019531 22.574219 208.953125 87.640625 208.953125 167.617188 C 208.953125 216.113281 260.71875 290.09375 301.390625 340.734375 C 277.105469 342.347656 254.820312 345.085938 236.15625 348.816406 C 200.105469 356.027344 182.582031 365.765625 182.582031 378.589844 C 182.582031 391.417969 200.105469 401.15625 236.15625 408.367188 C 267.699219 414.675781 309.550781 418.148438 353.996094 418.148438 C 398.445312 418.148438 440.292969 414.675781 471.835938 408.367188 C 507.886719 401.15625 525.414062 391.417969 525.414062 378.589844 C 525.414062 365.765625 507.886719 356.027344 471.835938 348.816406 Z M 222.136719 167.617188 C 222.136719 94.910156 281.289062 35.761719 353.996094 35.761719 C 426.703125 35.761719 485.855469 94.910156 485.855469 167.617188 C 485.855469 232.707031 378.253906 355.230469 353.992188 382.019531 C 343.316406 370.246094 316.503906 339.960938 289.988281 304.335938 C 245.601562 244.714844 222.136719 197.4375 222.136719 167.617188 Z M 469.253906 395.4375 C 438.53125 401.582031 397.601562 404.964844 353.996094 404.964844 C 310.390625 404.964844 269.460938 401.582031 238.742188 395.4375 C 198.292969 387.347656 195.765625 378.675781 195.765625 378.589844 C 195.765625 378.507812 198.292969 369.835938 238.742188 361.746094 C 259.242188 357.648438 284.300781 354.78125 311.660156 353.324219 C 331.769531 377.613281 347.320312 394.296875 349.1875 396.289062 C 350.433594 397.617188 352.175781 398.371094 353.996094 398.371094 C 355.816406 398.371094 357.558594 397.617188 358.804688 396.289062 C 359.042969 396.035156 375.148438 378.800781 396.222656 353.332031 C 423.621094 354.78125 448.726562 357.640625 469.25 361.746094 C 509.703125 369.835938 512.226562 378.507812 512.226562 378.589844 C 512.226562 378.675781 509.703125 387.347656 469.253906 395.4375 Z M 469.253906 395.4375 " fill-opacity="1" fill-rule="nonzero"/></g><path fill="#000000" d="M 472.667969 167.617188 C 472.667969 102.183594 419.433594 48.945312 353.996094 48.945312 C 288.5625 48.945312 235.324219 102.183594 235.324219 167.617188 C 235.324219 233.054688 288.5625 286.289062 353.996094 286.289062 C 419.433594 286.289062 472.667969 233.054688 472.667969 167.617188 Z M 248.511719 167.617188 C 248.511719 109.453125 295.832031 62.132812 353.996094 62.132812 C 412.164062 62.132812 459.484375 109.453125 459.484375 167.617188 C 459.484375 225.785156 412.164062 273.105469 353.996094 273.105469 C 295.832031 273.105469 248.511719 225.785156 248.511719 167.617188 Z M 248.511719 167.617188 " fill-opacity="1" fill-rule="nonzero"/><path fill="#000000" d="M 380.367188 220.363281 C 380.367188 205.820312 368.539062 193.988281 353.996094 193.988281 C 339.457031 193.988281 327.625 205.820312 327.625 220.363281 C 327.625 234.902344 339.457031 246.734375 353.996094 246.734375 C 368.539062 246.734375 380.367188 234.902344 380.367188 220.363281 Z M 340.8125 220.363281 C 340.8125 213.089844 346.726562 207.175781 353.996094 207.175781 C 361.265625 207.175781 367.183594 213.089844 367.183594 220.363281 C 367.183594 227.632812 361.265625 233.546875 353.996094 233.546875 C 346.726562 233.546875 340.8125 227.632812 340.8125 220.363281 Z M 340.8125 220.363281 " fill-opacity="1" fill-rule="nonzero"/><path fill="#000000" d="M 329.667969 198.195312 C 336.410156 190.058594 345.050781 185.578125 353.996094 185.578125 C 362.945312 185.578125 371.582031 190.058594 378.324219 198.195312 C 379.628906 199.769531 381.507812 200.582031 383.40625 200.582031 C 384.886719 200.582031 386.375 200.085938 387.605469 199.066406 L 407.914062 182.242188 C 409.261719 181.128906 410.109375 179.523438 410.273438 177.78125 C 410.4375 176.042969 409.902344 174.308594 408.785156 172.960938 C 394.394531 155.585938 374.9375 146.019531 353.996094 146.019531 C 333.058594 146.019531 313.601562 155.585938 299.210938 172.960938 C 298.09375 174.308594 297.558594 176.039062 297.722656 177.78125 C 297.886719 179.523438 298.734375 181.128906 300.082031 182.242188 L 320.390625 199.066406 C 323.191406 201.390625 327.347656 201 329.667969 198.195312 Z M 324.019531 184.957031 L 313.804688 176.492188 C 325.035156 165.296875 339.09375 159.207031 353.996094 159.207031 C 368.898438 159.207031 382.957031 165.296875 394.1875 176.492188 L 383.972656 184.957031 C 375.390625 176.808594 364.941406 172.390625 353.996094 172.390625 C 343.050781 172.390625 332.605469 176.808594 324.019531 184.957031 Z M 324.019531 184.957031 " fill-opacity="1" fill-rule="nonzero"/><path fill="#000000" d="M 353.996094 134.652344 C 375.757812 134.652344 396.324219 144.066406 411.898438 161.164062 C 413.078125 162.453125 414.722656 163.226562 416.46875 163.308594 C 416.570312 163.3125 416.671875 163.316406 416.773438 163.316406 C 418.414062 163.316406 419.996094 162.703125 421.214844 161.59375 L 440.707031 143.832031 C 443.398438 141.378906 443.589844 137.207031 441.136719 134.515625 C 417.972656 109.097656 387.023438 95.097656 353.996094 95.097656 C 320.96875 95.097656 290.023438 109.097656 266.855469 134.515625 C 264.402344 137.207031 264.597656 141.378906 267.289062 143.832031 L 286.78125 161.59375 C 288.070312 162.773438 289.773438 163.398438 291.527344 163.308594 C 293.273438 163.226562 294.917969 162.457031 296.09375 161.164062 C 311.671875 144.066406 332.234375 134.652344 353.996094 134.652344 Z M 290.945312 147.546875 L 281.179688 138.648438 C 301.21875 119.015625 326.839844 108.28125 353.996094 108.28125 C 381.152344 108.28125 406.773438 119.015625 426.8125 138.652344 L 417.050781 147.550781 C 399.566406 130.679688 377.410156 121.46875 353.996094 121.46875 C 330.582031 121.46875 308.425781 130.679688 290.945312 147.546875 Z M 290.945312 147.546875 " fill-opacity="1" fill-rule="nonzero"/></svg>